<svg width="220" height="63" viewBox="0 0 220 63" fill="none" xmlns="http://www.w3.org/2000/svg">
<path d="M86.2102 14.9855V23.9219H87.8512C89.4129 23.9219 90.7616 23.573 91.8974 22.875C93.0332 22.177 93.6011 21.0428 93.6011 19.4724C93.6011 17.902 93.0332 16.7636 91.8974 16.0574C90.77 15.3428 89.4212 14.9855 87.8512 14.9855H86.2102ZM76.9653 44.8984V8.5542H90.7199C92.4736 8.5542 94.098 8.75777 95.5928 9.16492C97.0961 9.57207 98.4114 10.2036 99.5388 11.0594C100.675 11.9069 101.556 12.983 102.182 14.2875C102.817 15.5837 103.134 17.1085 103.134 18.8617C103.134 21.5372 102.545 23.7308 101.368 25.4425C100.199 27.1542 98.6035 28.4006 96.5825 29.1816C94.5698 29.9627 92.2899 30.3532 89.7428 30.3532C89.058 30.3532 87.8804 30.2826 86.2102 30.1413V44.8984H76.9653Z" fill="white"/>
<path d="M127.848 28.8202H120.77C120.77 27.4159 120.632 26.3441 120.357 25.6045C119.897 24.4413 119.095 23.8596 117.951 23.8596C117.074 23.8596 116.411 24.1962 115.96 24.8692C115.509 25.5339 115.212 26.4645 115.07 27.6611C114.937 28.8576 114.87 30.4155 114.87 32.335C114.87 35.1517 115.108 37.1335 115.584 38.2801C116.068 39.4268 116.857 40.0001 117.951 40.0001C120.073 40.0001 121.133 38.3674 121.133 35.1019L127.597 36.0117C127.296 39.1194 126.269 41.4792 124.515 43.0911C122.762 44.7031 120.369 45.5091 117.338 45.5091C114.957 45.5091 112.903 44.8984 111.174 43.6769C109.454 42.4555 108.151 40.8601 107.266 38.8909C106.381 36.9133 105.938 34.8318 105.938 32.6465C105.938 30.2203 106.385 27.9436 107.278 25.8164C108.172 23.681 109.508 21.9568 111.287 20.644C113.074 19.3228 115.208 18.6623 117.688 18.6623C120.361 18.6623 122.453 19.2771 123.964 20.5069C125.484 21.7283 126.511 23.116 127.046 24.6698C127.58 26.2236 127.848 27.6071 127.848 28.8202Z" fill="white"/>
<path d="M130.564 19.273H139.132L142.164 34.1297H142.264L145.809 19.273H152.323L143.655 45.721C143.095 47.416 142.318 48.7663 141.325 49.7717C140.331 50.7854 139.162 51.5 137.817 51.9154C136.481 52.3392 134.936 52.5511 133.182 52.5511C132.631 52.5511 131.812 52.4846 130.727 52.3517V46.4813C131.52 46.6474 132.255 46.7305 132.932 46.7305C136.038 46.7305 137.592 45.7127 137.592 43.6769C137.592 42.9042 137.475 42.1356 137.241 41.3711L130.564 19.273Z" fill="white"/>
<path d="M155.979 44.8984V8.5542H164.284V44.8984H155.979Z" fill="white"/>
<path d="M182.509 28.6083V26.8758C182.509 26.0366 182.325 25.3262 181.958 24.7446C181.59 24.1546 181.056 23.8596 180.354 23.8596C179.511 23.8596 178.872 24.1962 178.438 24.8692C178.012 25.5422 177.745 26.3316 177.636 27.2373L170.408 25.7541C170.709 24.1421 171.36 22.8044 172.362 21.7408C173.364 20.6772 174.588 19.9003 176.033 19.4101C177.477 18.9115 179.022 18.6623 180.668 18.6623C182.438 18.6623 184.092 18.9323 185.628 19.4724C187.173 20.0042 188.426 20.86 189.386 22.0399C190.347 23.2198 190.827 24.6947 190.827 26.4645V40.7604C190.827 42.9042 191.082 44.2835 191.591 44.8984H183.023C182.956 44.5992 182.897 44.1464 182.847 43.5398C182.805 42.9333 182.78 42.605 182.772 42.5552C181.077 44.5245 178.989 45.5091 176.509 45.5091C174.245 45.5091 172.446 44.8194 171.11 43.4401C169.782 42.0525 169.118 40.1206 169.118 37.6445C169.118 35.5174 169.803 33.7849 171.172 32.4471C172.542 31.1094 174.245 30.1496 176.283 29.568C178.329 28.9864 180.404 28.6665 182.509 28.6083ZM182.509 38.3674V32.5967C181.29 32.713 180.329 32.8958 179.628 33.1451C178.935 33.3861 178.396 33.8306 178.012 34.4787C177.628 35.1268 177.436 36.0491 177.436 37.2457C177.436 38.1264 177.649 38.8078 178.074 39.2897C178.509 39.7633 179.102 40.0001 179.853 40.0001C180.68 40.0001 181.565 39.4559 182.509 38.3674Z" fill="white"/>
<path d="M206.033 25.6045V39.3396C206.726 39.9794 207.582 40.2993 208.601 40.2993C209.837 40.2993 210.605 39.7093 210.905 38.5294C211.214 37.3495 211.369 35.3553 211.369 32.5468C211.369 30.1039 211.327 28.3092 211.244 27.1625C211.16 26.0159 210.951 25.1309 210.617 24.5077C210.283 23.8762 209.749 23.5605 209.014 23.5605C208.363 23.5605 207.745 23.7724 207.16 24.1962C206.584 24.6199 206.208 25.0894 206.033 25.6045ZM197.727 52.5511V19.273H205.732V21.9776H205.832C206.634 21.0054 207.544 20.2618 208.563 19.7466C209.59 19.2231 210.63 18.9614 211.682 18.9614C212.96 18.9614 214.108 19.2314 215.127 19.7715C216.154 20.3033 217.031 21.0927 217.758 22.1396C218.484 23.1783 219.04 24.4537 219.424 25.966C219.808 27.4783 220 29.1941 220 31.1135C220 33.5481 219.733 35.7957 219.198 37.8564C218.664 39.917 217.737 41.6079 216.417 42.9291C215.106 44.2419 213.357 44.8984 211.169 44.8984C209.248 44.8984 207.536 44.1505 206.033 42.6549V52.5511H197.727Z" fill="white"/>
<path fill-rule="evenodd" clip-rule="evenodd" d="M31.3562 62.4415C48.6738 62.4415 62.7125 48.4737 62.7125 31.2435C62.7125 14.0133 48.6738 0.0454102 31.3562 0.0454102C14.0387 0.0454102 0 14.0133 0 31.2435C0 48.4737 14.0387 62.4415 31.3562 62.4415ZM21.0461 12.0845L14.2529 50.817H24.1014L26.2573 38.5028C28.1391 41.2393 30.6154 42.6075 33.6863 42.6075C35.3406 42.6075 36.964 42.2269 38.5563 41.4656C40.1486 40.7044 41.5341 39.6293 42.7128 38.2405C44.9669 35.6686 46.5333 31.8571 47.4122 26.8059C47.7534 24.7896 47.924 23.123 47.924 21.8062C47.924 18.4936 47.1951 15.932 45.7372 14.1214C44.2896 12.3006 42.2217 11.3901 39.5334 11.3901C36.721 11.3901 33.6088 12.8612 30.1967 15.8035L30.8946 12.0845H21.0461ZM31.0187 36.4813C29.447 36.4813 28.1132 35.6583 27.0172 34.0123L29.4367 20.2322C31.2151 18.4628 32.7816 17.578 34.1361 17.578C36.4211 17.578 37.5637 19.2652 37.5637 22.6395C37.5637 23.4522 37.4603 24.5273 37.2535 25.8646C36.5917 29.6299 35.7697 32.3406 34.7875 33.9969C33.8155 35.6532 32.5593 36.4813 31.0187 36.4813Z" fill="white"/>
</svg>
