<svg width="37" height="37" viewBox="0 0 37 37" fill="none" xmlns="http://www.w3.org/2000/svg">
<path d="M0 37L3.182 27.4546C1.5674 24.739 0.637931 21.5697 0.637931 18.181C0.637931 8.14 8.77793 0 18.819 0C28.86 0 37 8.14 37 18.181C37 28.2221 28.86 36.3621 18.819 36.3621C15.7639 36.3621 12.8868 35.6048 10.36 34.2741L0 37Z" fill="#2CB742"/>
<path d="M30.4185 24.2318C29.579 22.6453 26.4831 20.831 26.4831 20.831C25.7826 20.4317 24.9374 20.387 24.538 21.099C24.538 21.099 23.532 22.3053 23.2762 22.4788C22.1075 23.2705 21.0249 23.2399 19.9322 22.1471L17.3926 19.6075L14.853 17.0679C13.7602 15.9751 13.7296 14.8925 14.5212 13.7238C14.6947 13.468 15.9011 12.462 15.9011 12.462C16.613 12.062 16.5684 11.2174 16.169 10.517C16.169 10.517 14.3547 7.42108 12.7682 6.58156C12.0933 6.22432 11.2646 6.34935 10.7249 6.88904L9.60342 8.01053C6.04568 11.5683 7.79744 15.5847 11.3552 19.1424L14.6067 22.394L17.8582 25.6455C21.416 29.2032 25.4324 30.955 28.9901 27.3972L30.1116 26.2758C30.6513 25.7348 30.7757 24.9061 30.4185 24.2318Z" fill="white"/>
</svg>
