<svg width="374" height="53" viewBox="0 0 374 53" fill="none" xmlns="http://www.w3.org/2000/svg">
<rect width="53" height="53" fill="#007641"/>
<path d="M8 45L11.182 35.4546C9.5674 32.739 8.63793 29.5697 8.63793 26.181C8.63793 16.14 16.7779 8 26.819 8C36.86 8 45 16.14 45 26.181C45 36.2221 36.86 44.3621 26.819 44.3621C23.7639 44.3621 20.8868 43.6048 18.36 42.2741L8 45Z" fill="#2CB742"/>
<path d="M38.4185 32.2318C37.579 30.6453 34.4831 28.831 34.4831 28.831C33.7826 28.4317 32.9374 28.387 32.538 29.099C32.538 29.099 31.532 30.3053 31.2762 30.4788C30.1075 31.2705 29.0249 31.2399 27.9322 30.1471L25.3926 27.6075L22.853 25.0679C21.7602 23.9751 21.7296 22.8925 22.5212 21.7238C22.6947 21.468 23.9011 20.462 23.9011 20.462C24.613 20.062 24.5684 19.2174 24.169 18.517C24.169 18.517 22.3547 15.4211 20.7682 14.5816C20.0933 14.2243 19.2646 14.3494 18.7249 14.889L17.6034 16.0105C14.0457 19.5683 15.7974 23.5847 19.3552 27.1424L22.6067 30.394L25.8582 33.6455C29.416 37.2032 33.4324 38.955 36.9901 35.3972L38.1116 34.2758C38.6513 33.7348 38.7757 32.9061 38.4185 32.2318Z" fill="white"/>
<rect width="321" height="53" transform="translate(53)" fill="#009B28"/>
<path d="M73.6484 34.5H71.3984V17.4375H73.6484V34.5ZM79.4844 21.8203L79.5547 23.4141C80.5234 22.1953 81.7891 21.5859 83.3516 21.5859C86.0312 21.5859 87.3828 23.0977 87.4062 26.1211V34.5H85.2383V26.1094C85.2305 25.1953 85.0195 24.5195 84.6055 24.082C84.1992 23.6445 83.5625 23.4258 82.6953 23.4258C81.9922 23.4258 81.375 23.6133 80.8438 23.9883C80.3125 24.3633 79.8984 24.8555 79.6016 25.4648V34.5H77.4336V21.8203H79.4844ZM91.7422 34.5V23.4961H89.7383V21.8203H91.7422V20.5195C91.7422 19.1602 92.1055 18.1094 92.832 17.3672C93.5586 16.625 94.5859 16.2539 95.9141 16.2539C96.4141 16.2539 96.9102 16.3203 97.4023 16.4531L97.2852 18.2109C96.918 18.1406 96.5273 18.1055 96.1133 18.1055C95.4102 18.1055 94.8672 18.3125 94.4844 18.7266C94.1016 19.1328 93.9102 19.7188 93.9102 20.4844V21.8203H96.6172V23.4961H93.9102V34.5H91.7422ZM98.4453 28.043C98.4453 26.8008 98.6875 25.6836 99.1719 24.6914C99.6641 23.6992 100.344 22.9336 101.211 22.3945C102.086 21.8555 103.082 21.5859 104.199 21.5859C105.926 21.5859 107.32 22.1836 108.383 23.3789C109.453 24.5742 109.988 26.1641 109.988 28.1484V28.3008C109.988 29.5352 109.75 30.6445 109.273 31.6289C108.805 32.6055 108.129 33.3672 107.246 33.9141C106.371 34.4609 105.363 34.7344 104.223 34.7344C102.504 34.7344 101.109 34.1367 100.039 32.9414C98.9766 31.7461 98.4453 30.1641 98.4453 28.1953V28.043ZM100.625 28.3008C100.625 29.707 100.949 30.8359 101.598 31.6875C102.254 32.5391 103.129 32.9648 104.223 32.9648C105.324 32.9648 106.199 32.5352 106.848 31.6758C107.496 30.8086 107.82 29.5977 107.82 28.043C107.82 26.6523 107.488 25.5273 106.824 24.668C106.168 23.8008 105.293 23.3672 104.199 23.3672C103.129 23.3672 102.266 23.793 101.609 24.6445C100.953 25.4961 100.625 26.7148 100.625 28.3008ZM118.836 23.7656C118.508 23.7109 118.152 23.6836 117.77 23.6836C116.348 23.6836 115.383 24.2891 114.875 25.5V34.5H112.707V21.8203H114.816L114.852 23.2852C115.562 22.1523 116.57 21.5859 117.875 21.5859C118.297 21.5859 118.617 21.6406 118.836 21.75V23.7656ZM122.879 21.8203L122.938 23.2266C123.867 22.1328 125.121 21.5859 126.699 21.5859C128.473 21.5859 129.68 22.2656 130.32 23.625C130.742 23.0156 131.289 22.5234 131.961 22.1484C132.641 21.7734 133.441 21.5859 134.363 21.5859C137.145 21.5859 138.559 23.0586 138.605 26.0039V34.5H136.438V26.1328C136.438 25.2266 136.23 24.5508 135.816 24.1055C135.402 23.6523 134.707 23.4258 133.73 23.4258C132.926 23.4258 132.258 23.668 131.727 24.1523C131.195 24.6289 130.887 25.2734 130.801 26.0859V34.5H128.621V26.1914C128.621 24.3477 127.719 23.4258 125.914 23.4258C124.492 23.4258 123.52 24.0312 122.996 25.2422V34.5H120.828V21.8203H122.879ZM149.715 34.5C149.59 34.25 149.488 33.8047 149.41 33.1641C148.402 34.2109 147.199 34.7344 145.801 34.7344C144.551 34.7344 143.523 34.3828 142.719 33.6797C141.922 32.9688 141.523 32.0703 141.523 30.9844C141.523 29.6641 142.023 28.6406 143.023 27.9141C144.031 27.1797 145.445 26.8125 147.266 26.8125H149.375V25.8164C149.375 25.0586 149.148 24.457 148.695 24.0117C148.242 23.5586 147.574 23.332 146.691 23.332C145.918 23.332 145.27 23.5273 144.746 23.918C144.223 24.3086 143.961 24.7812 143.961 25.3359H141.781C141.781 24.7031 142.004 24.0938 142.449 23.5078C142.902 22.9141 143.512 22.4453 144.277 22.1016C145.051 21.7578 145.898 21.5859 146.82 21.5859C148.281 21.5859 149.426 21.9531 150.254 22.6875C151.082 23.4141 151.512 24.418 151.543 25.6992V31.5352C151.543 32.6992 151.691 33.625 151.988 34.3125V34.5H149.715ZM146.117 32.8477C146.797 32.8477 147.441 32.6719 148.051 32.3203C148.66 31.9688 149.102 31.5117 149.375 30.9492V28.3477H147.676C145.02 28.3477 143.691 29.125 143.691 30.6797C143.691 31.3594 143.918 31.8906 144.371 32.2734C144.824 32.6562 145.406 32.8477 146.117 32.8477ZM160.027 32.9648C160.801 32.9648 161.477 32.7305 162.055 32.2617C162.633 31.793 162.953 31.207 163.016 30.5039H165.066C165.027 31.2305 164.777 31.9219 164.316 32.5781C163.855 33.2344 163.238 33.7578 162.465 34.1484C161.699 34.5391 160.887 34.7344 160.027 34.7344C158.301 34.7344 156.926 34.1602 155.902 33.0117C154.887 31.8555 154.379 30.2773 154.379 28.2773V27.9141C154.379 26.6797 154.605 25.582 155.059 24.6211C155.512 23.6602 156.16 22.9141 157.004 22.3828C157.855 21.8516 158.859 21.5859 160.016 21.5859C161.438 21.5859 162.617 22.0117 163.555 22.8633C164.5 23.7148 165.004 24.8203 165.066 26.1797H163.016C162.953 25.3594 162.641 24.6875 162.078 24.1641C161.523 23.6328 160.836 23.3672 160.016 23.3672C158.914 23.3672 158.059 23.7656 157.449 24.5625C156.848 25.3516 156.547 26.4961 156.547 27.9961V28.4062C156.547 29.8672 156.848 30.9922 157.449 31.7812C158.051 32.5703 158.91 32.9648 160.027 32.9648ZM169.859 34.5H167.691V21.8203H169.859V34.5ZM167.516 18.457C167.516 18.1055 167.621 17.8086 167.832 17.5664C168.051 17.3242 168.371 17.2031 168.793 17.2031C169.215 17.2031 169.535 17.3242 169.754 17.5664C169.973 17.8086 170.082 18.1055 170.082 18.457C170.082 18.8086 169.973 19.1016 169.754 19.3359C169.535 19.5703 169.215 19.6875 168.793 19.6875C168.371 19.6875 168.051 19.5703 167.832 19.3359C167.621 19.1016 167.516 18.8086 167.516 18.457ZM172.766 28.043C172.766 26.8008 173.008 25.6836 173.492 24.6914C173.984 23.6992 174.664 22.9336 175.531 22.3945C176.406 21.8555 177.402 21.5859 178.52 21.5859C180.246 21.5859 181.641 22.1836 182.703 23.3789C183.773 24.5742 184.309 26.1641 184.309 28.1484V28.3008C184.309 29.5352 184.07 30.6445 183.594 31.6289C183.125 32.6055 182.449 33.3672 181.566 33.9141C180.691 34.4609 179.684 34.7344 178.543 34.7344C176.824 34.7344 175.43 34.1367 174.359 32.9414C173.297 31.7461 172.766 30.1641 172.766 28.1953V28.043ZM174.945 28.3008C174.945 29.707 175.27 30.8359 175.918 31.6875C176.574 32.5391 177.449 32.9648 178.543 32.9648C179.645 32.9648 180.52 32.5352 181.168 31.6758C181.816 30.8086 182.141 29.5977 182.141 28.043C182.141 26.6523 181.809 25.5273 181.145 24.668C180.488 23.8008 179.613 23.3672 178.52 23.3672C177.449 23.3672 176.586 23.793 175.93 24.6445C175.273 25.4961 174.945 26.7148 174.945 28.3008ZM179.504 16.5H182.129L178.988 19.9453H177.242L179.504 16.5ZM189.078 21.8203L189.148 23.4141C190.117 22.1953 191.383 21.5859 192.945 21.5859C195.625 21.5859 196.977 23.0977 197 26.1211V34.5H194.832V26.1094C194.824 25.1953 194.613 24.5195 194.199 24.082C193.793 23.6445 193.156 23.4258 192.289 23.4258C191.586 23.4258 190.969 23.6133 190.438 23.9883C189.906 24.3633 189.492 24.8555 189.195 25.4648V34.5H187.027V21.8203H189.078ZM208.812 27.8203V34.5H206.562V17.4375H212.855C214.723 17.4375 216.184 17.9141 217.238 18.8672C218.301 19.8203 218.832 21.082 218.832 22.6523C218.832 24.3086 218.312 25.5859 217.273 26.4844C216.242 27.375 214.762 27.8203 212.832 27.8203H208.812ZM208.812 25.9805H212.855C214.059 25.9805 214.98 25.6992 215.621 25.1367C216.262 24.5664 216.582 23.7461 216.582 22.6758C216.582 21.6602 216.262 20.8477 215.621 20.2383C214.98 19.6289 214.102 19.3125 212.984 19.2891H208.812V25.9805ZM220.625 28.043C220.625 26.8008 220.867 25.6836 221.352 24.6914C221.844 23.6992 222.523 22.9336 223.391 22.3945C224.266 21.8555 225.262 21.5859 226.379 21.5859C228.105 21.5859 229.5 22.1836 230.562 23.3789C231.633 24.5742 232.168 26.1641 232.168 28.1484V28.3008C232.168 29.5352 231.93 30.6445 231.453 31.6289C230.984 32.6055 230.309 33.3672 229.426 33.9141C228.551 34.4609 227.543 34.7344 226.402 34.7344C224.684 34.7344 223.289 34.1367 222.219 32.9414C221.156 31.7461 220.625 30.1641 220.625 28.1953V28.043ZM222.805 28.3008C222.805 29.707 223.129 30.8359 223.777 31.6875C224.434 32.5391 225.309 32.9648 226.402 32.9648C227.504 32.9648 228.379 32.5352 229.027 31.6758C229.676 30.8086 230 29.5977 230 28.043C230 26.6523 229.668 25.5273 229.004 24.668C228.348 23.8008 227.473 23.3672 226.379 23.3672C225.309 23.3672 224.445 23.793 223.789 24.6445C223.133 25.4961 222.805 26.7148 222.805 28.3008ZM241.016 23.7656C240.688 23.7109 240.332 23.6836 239.949 23.6836C238.527 23.6836 237.562 24.2891 237.055 25.5V34.5H234.887V21.8203H236.996L237.031 23.2852C237.742 22.1523 238.75 21.5859 240.055 21.5859C240.477 21.5859 240.797 21.6406 241.016 21.75V23.7656ZM252.992 29.1211L253.32 31.3711L253.801 29.3438L257.176 17.4375H259.074L262.367 29.3438L262.836 31.4062L263.199 29.1094L265.848 17.4375H268.109L263.973 34.5H261.922L258.406 22.0664L258.137 20.7656L257.867 22.0664L254.223 34.5H252.172L248.047 17.4375H250.297L252.992 29.1211ZM272.445 23.3555C273.406 22.1758 274.656 21.5859 276.195 21.5859C278.875 21.5859 280.227 23.0977 280.25 26.1211V34.5H278.082V26.1094C278.074 25.1953 277.863 24.5195 277.449 24.082C277.043 23.6445 276.406 23.4258 275.539 23.4258C274.836 23.4258 274.219 23.6133 273.688 23.9883C273.156 24.3633 272.742 24.8555 272.445 25.4648V34.5H270.277V16.5H272.445V23.3555ZM291.324 34.5C291.199 34.25 291.098 33.8047 291.02 33.1641C290.012 34.2109 288.809 34.7344 287.41 34.7344C286.16 34.7344 285.133 34.3828 284.328 33.6797C283.531 32.9688 283.133 32.0703 283.133 30.9844C283.133 29.6641 283.633 28.6406 284.633 27.9141C285.641 27.1797 287.055 26.8125 288.875 26.8125H290.984V25.8164C290.984 25.0586 290.758 24.457 290.305 24.0117C289.852 23.5586 289.184 23.332 288.301 23.332C287.527 23.332 286.879 23.5273 286.355 23.918C285.832 24.3086 285.57 24.7812 285.57 25.3359H283.391C283.391 24.7031 283.613 24.0938 284.059 23.5078C284.512 22.9141 285.121 22.4453 285.887 22.1016C286.66 21.7578 287.508 21.5859 288.43 21.5859C289.891 21.5859 291.035 21.9531 291.863 22.6875C292.691 23.4141 293.121 24.418 293.152 25.6992V31.5352C293.152 32.6992 293.301 33.625 293.598 34.3125V34.5H291.324ZM287.727 32.8477C288.406 32.8477 289.051 32.6719 289.66 32.3203C290.27 31.9688 290.711 31.5117 290.984 30.9492V28.3477H289.285C286.629 28.3477 285.301 29.125 285.301 30.6797C285.301 31.3594 285.527 31.8906 285.98 32.2734C286.434 32.6562 287.016 32.8477 287.727 32.8477ZM299.492 18.75V21.8203H301.859V23.4961H299.492V31.3594C299.492 31.8672 299.598 32.25 299.809 32.5078C300.02 32.7578 300.379 32.8828 300.887 32.8828C301.137 32.8828 301.48 32.8359 301.918 32.7422V34.5C301.348 34.6562 300.793 34.7344 300.254 34.7344C299.285 34.7344 298.555 34.4414 298.062 33.8555C297.57 33.2695 297.324 32.4375 297.324 31.3594V23.4961H295.016V21.8203H297.324V18.75H299.492ZM311.785 31.1367C311.785 30.5508 311.562 30.0977 311.117 29.7773C310.68 29.4492 309.91 29.168 308.809 28.9336C307.715 28.6992 306.844 28.418 306.195 28.0898C305.555 27.7617 305.078 27.3711 304.766 26.918C304.461 26.4648 304.309 25.9258 304.309 25.3008C304.309 24.2617 304.746 23.3828 305.621 22.6641C306.504 21.9453 307.629 21.5859 308.996 21.5859C310.434 21.5859 311.598 21.957 312.488 22.6992C313.387 23.4414 313.836 24.3906 313.836 25.5469H311.656C311.656 24.9531 311.402 24.4414 310.895 24.0117C310.395 23.582 309.762 23.3672 308.996 23.3672C308.207 23.3672 307.59 23.5391 307.145 23.8828C306.699 24.2266 306.477 24.6758 306.477 25.2305C306.477 25.7539 306.684 26.1484 307.098 26.4141C307.512 26.6797 308.258 26.9336 309.336 27.1758C310.422 27.418 311.301 27.707 311.973 28.043C312.645 28.3789 313.141 28.7852 313.461 29.2617C313.789 29.7305 313.953 30.3047 313.953 30.9844C313.953 32.1172 313.5 33.0273 312.594 33.7148C311.688 34.3945 310.512 34.7344 309.066 34.7344C308.051 34.7344 307.152 34.5547 306.371 34.1953C305.59 33.8359 304.977 33.3359 304.531 32.6953C304.094 32.0469 303.875 31.3477 303.875 30.5977H306.043C306.082 31.3242 306.371 31.9023 306.91 32.332C307.457 32.7539 308.176 32.9648 309.066 32.9648C309.887 32.9648 310.543 32.8008 311.035 32.4727C311.535 32.1367 311.785 31.6914 311.785 31.1367ZM326.539 30.0469H319.391L317.785 34.5H315.465L321.98 17.4375H323.949L330.477 34.5H328.168L326.539 30.0469ZM320.07 28.1953H325.871L322.965 20.2148L320.07 28.1953ZM343.145 28.3008C343.145 30.2305 342.703 31.7852 341.82 32.9648C340.938 34.1445 339.742 34.7344 338.234 34.7344C336.695 34.7344 335.484 34.2461 334.602 33.2695V39.375H332.434V21.8203H334.414L334.52 23.2266C335.402 22.1328 336.629 21.5859 338.199 21.5859C339.723 21.5859 340.926 22.1602 341.809 23.3086C342.699 24.457 343.145 26.0547 343.145 28.1016V28.3008ZM340.977 28.0547C340.977 26.625 340.672 25.4961 340.062 24.668C339.453 23.8398 338.617 23.4258 337.555 23.4258C336.242 23.4258 335.258 24.0078 334.602 25.1719V31.2305C335.25 32.3867 336.242 32.9648 337.578 32.9648C338.617 32.9648 339.441 32.5547 340.051 31.7344C340.668 30.9062 340.977 29.6797 340.977 28.0547ZM356.621 28.3008C356.621 30.2305 356.18 31.7852 355.297 32.9648C354.414 34.1445 353.219 34.7344 351.711 34.7344C350.172 34.7344 348.961 34.2461 348.078 33.2695V39.375H345.91V21.8203H347.891L347.996 23.2266C348.879 22.1328 350.105 21.5859 351.676 21.5859C353.199 21.5859 354.402 22.1602 355.285 23.3086C356.176 24.457 356.621 26.0547 356.621 28.1016V28.3008ZM354.453 28.0547C354.453 26.625 354.148 25.4961 353.539 24.668C352.93 23.8398 352.094 23.4258 351.031 23.4258C349.719 23.4258 348.734 24.0078 348.078 25.1719V31.2305C348.727 32.3867 349.719 32.9648 351.055 32.9648C352.094 32.9648 352.918 32.5547 353.527 31.7344C354.145 30.9062 354.453 29.6797 354.453 28.0547Z" fill="white"/>
</svg>
